<svg width="188" height="40" viewBox="0 0 188 40" fill="none" xmlns="http://www.w3.org/2000/svg">
<path d="M46.151 3.5949C43.542 1.29391 39.8736 0.0267487 35.8192 0.0267487C31.8494 0.0267487 28.0237 1.48523 25.3226 4.02731L25.0985 4.23737L24.8747 4.02731C22.1736 1.48523 18.3482 0.0267487 14.3787 0.0267487C10.325 0.0267487 6.65586 1.29391 4.04693 3.5949C1.54842 5.79829 0 8.08668 0 12.6777L0.000977211 39.3608H7.31509L7.3164 12.6777C7.3164 9.16866 10.4178 6.41975 14.3791 6.41975C18.339 6.41975 21.4417 9.16834 21.4417 12.6777L21.4424 39.3608H28.7572L28.7585 12.6777C28.7585 9.16866 31.8599 6.41975 35.8201 6.41975C39.7808 6.41975 42.8831 9.16834 42.8831 12.6777L42.8844 39.3608H50.1976L50.1999 12.6777C50.1979 8.08668 48.6495 5.79829 46.151 3.5949Z" fill="#FF0099"/>
<path d="M79.5609 3.55549C77.0806 1.24706 73.5702 0.0270844 69.4095 0.0270844C62.4814 0.0270844 58.5322 3.94846 56.6323 5.83773L59.6461 11.0916L59.6614 11.0751C61.4652 9.13636 66.3961 4.86724 73.2044 7.09617L73.235 7.1078C74.6388 7.73023 76.3107 8.99384 76.3152 11.479L76.3159 11.4952C76.3517 11.8071 76.3699 12.139 76.3699 12.4822V14.5424L68.5028 16.0939C64.7311 16.8298 61.6795 18.096 59.4305 19.8576C56.645 22.0394 55.2324 24.8665 55.2324 28.2621C55.2324 31.8557 56.7388 34.8907 59.5894 37.0397C62.1208 38.9484 65.559 40 69.2705 40C72.9722 40 76.4377 38.7868 79.029 36.5844C81.7438 34.2769 83.2391 31.0669 83.2391 27.5449V12.4825C83.2382 8.62477 82.1382 5.95537 79.5609 3.55549ZM76.3699 27.5443C76.3699 29.3356 75.7215 30.9799 74.5443 32.1724C73.2467 33.4868 71.3993 34.1829 69.2004 34.1829C67.669 34.1829 64.8522 33.8875 63.1996 31.9074C61.9121 30.3656 61.7134 28.1295 62.7061 26.3401C64.4627 23.1766 68.4718 21.9841 72.1634 21.235L72.5709 21.1526C73.3887 20.9884 75.3046 20.6029 75.9807 20.461L76.3699 20.3789V27.5443Z" fill="#FF0099"/>
<path d="M110.815 3.17995C110.231 2.66837 109.612 2.20558 108.975 1.80388C107.489 0.866677 105.979 0.293045 104.485 0.100434C101.585 -0.272507 98.1487 0.409064 95.5163 1.88079C94.6708 2.35295 93.8946 2.91656 93.209 3.55547C90.8242 5.77535 89.5317 7.85626 89.5317 12.4825V39.3614H96.3993L96.4 13.9461C96.4 13.3376 96.4 12.7278 96.4003 12.1199C96.4009 11.4693 96.4153 10.8821 96.585 10.2836C96.8625 9.31248 97.4761 8.40501 98.3155 7.72828C98.6956 7.42191 99.1053 7.17049 99.5333 6.98078C102.205 5.8807 105.128 6.52479 107.416 8.69651C110.478 5.86713 111.628 4.80583 112.069 4.40283C111.705 4.0021 110.964 3.31116 110.815 3.17995Z" fill="#FF0099"/>
<path d="M173.948 0.0267487C167.02 0.0267487 163.071 3.94813 161.171 5.83739L164.186 11.0912L164.201 11.0747C166.005 9.13602 170.936 4.86691 177.744 7.09583L177.775 7.10746C179.179 7.73022 180.85 8.99382 180.855 11.4787L180.856 11.4949C180.891 11.8067 180.91 12.1386 180.91 12.4818V14.5421L173.042 16.0936C169.27 16.8295 166.218 18.0957 163.97 19.8573C161.184 22.039 159.771 24.8665 159.771 28.2617C159.771 31.8554 161.278 34.8903 164.128 37.0394C166.66 38.9481 170.098 39.9997 173.81 39.9997C177.512 39.9997 180.977 38.7865 183.569 36.584C186.284 34.2766 187.779 31.0665 187.779 27.5446V12.4825C187.779 8.882 186.508 5.79506 184.101 3.55547C181.619 1.24705 178.109 0.0267487 173.948 0.0267487ZM180.909 27.5443C180.909 29.3356 180.26 30.9799 179.083 32.1724C177.786 33.4868 175.938 34.1829 173.739 34.1829C172.208 34.1829 169.391 33.8875 167.738 31.9074C166.45 30.3656 166.252 28.1295 167.245 26.3401C169.001 23.1766 173.011 21.9841 176.702 21.235L177.096 21.1555C177.916 20.9903 179.839 20.6038 180.52 20.4619L180.909 20.3798V27.5443Z" fill="#FF0099"/>
<path d="M148.325 18.3616C146.556 17.4257 144.714 16.7374 142.662 15.997L142.36 15.889C141.037 15.4124 139.669 14.9205 138.404 14.2861C136.807 13.4863 135.917 12.6111 135.603 11.5324L135.593 11.4987C135.318 10.503 135.547 9.43528 136.208 8.63737C136.828 7.88761 137.789 7.30913 139.064 6.91744C139.628 6.74422 140.223 6.62012 140.829 6.54773C143.022 6.28693 145.281 6.677 147.361 7.67464C148.755 8.34328 150.066 9.26239 151.256 10.4048C151.312 10.4584 151.8 10.9432 151.914 11.0741L151.93 11.0915L151.939 11.0744C151.961 11.0366 154.768 6.14247 154.944 5.83708C153.042 3.94651 149.094 0.0264282 142.167 0.0264282C137.882 0.0264282 134.002 1.38278 131.521 3.74776C128.937 6.21034 127.93 9.86252 128.889 13.2778C129.619 15.8832 131.71 18.2101 134.773 19.8321C136.69 20.8465 138.794 21.6241 140.615 22.2736L140.846 22.3561C142.441 22.9248 144.091 23.5111 145.54 24.4043C147.248 25.4582 148.114 26.8213 148.114 28.4559C148.114 30.7085 146.262 32.2891 144.26 33.1549C142.03 34.1189 139.438 33.8074 137.145 33.1281C134.028 32.2209 130.876 29.0587 130.845 29.0273L127.747 34.1916C129.65 36.0835 133.599 39.9994 140.521 39.9994C141.082 39.9994 141.654 39.9745 142.224 39.9244L142.575 39.8937V39.9024L142.587 39.9011C145.65 39.5944 148.416 38.5713 150.588 36.9431C153.421 34.8186 154.981 31.805 154.981 28.4559C154.981 26.0515 154.303 23.8701 153.019 22.1473C151.94 20.7004 150.405 19.4617 148.325 18.3616Z" fill="#FF0099"/>
<path d="M122.714 0.678589H115.845V39.3601H122.714V0.678589Z" fill="#FF0099"/>
</svg>
