<svg width="32" height="27" viewBox="0 0 32 27" fill="none" xmlns="http://www.w3.org/2000/svg">
<path fill-rule="evenodd" clip-rule="evenodd" d="M31.8799 3.16073C30.8629 3.62073 29.7439 3.89973 28.6479 4.08373C29.1679 3.99573 29.9359 3.05373 30.2429 2.67173C30.7109 2.09073 31.0999 1.42673 31.3189 0.711729C31.3469 0.655729 31.3689 0.585729 31.3129 0.542729C31.2429 0.515729 31.1969 0.529729 31.1409 0.557729C29.9275 1.20568 28.6378 1.69951 27.3019 2.02773C27.2556 2.04214 27.2062 2.04321 27.1593 2.03083C27.1125 2.01845 27.07 1.99311 27.0369 1.95773C26.9343 1.83458 26.8223 1.71957 26.7019 1.61373C26.1474 1.13603 25.5193 0.751073 24.8419 0.473729C23.9377 0.107491 22.9624 -0.0497555 21.9889 0.0137293C21.0433 0.0780197 20.1213 0.338551 19.2819 0.778729C18.4411 1.2183 17.6986 1.82464 17.0999 2.56073C16.4786 3.32501 16.0334 4.21683 15.7959 5.17273C15.5719 6.09273 15.5899 7.00073 15.7259 7.92973C15.7479 8.08373 15.7339 8.10473 15.5949 8.08373C10.3189 7.30073 5.94891 5.41273 2.39991 1.37073C2.24591 1.19473 2.16191 1.19473 2.03591 1.38373C0.482914 3.71173 1.23591 7.45073 3.17591 9.28873C3.43491 9.53373 3.69991 9.77873 3.98691 10.0017C3.88291 10.0237 2.59191 9.88373 1.44091 9.28873C1.28691 9.19173 1.20991 9.24773 1.19591 9.42173C1.18592 9.67449 1.19998 9.92763 1.23791 10.1777C1.53591 12.5377 3.16991 14.7197 5.40791 15.5717C5.67391 15.6827 5.96691 15.7817 6.25391 15.8297C5.74391 15.9417 5.21891 16.0217 3.75691 15.9077C3.57491 15.8717 3.50491 15.9627 3.57491 16.1377C4.67291 19.1327 7.04491 20.0237 8.82091 20.5307C9.05891 20.5727 9.29691 20.5727 9.53491 20.6287C9.52091 20.6497 9.50691 20.6497 9.49291 20.6707C8.90291 21.5687 6.86091 22.2377 5.90991 22.5707C4.17991 23.1747 2.29691 23.4467 0.467914 23.2667C0.175914 23.2237 0.113914 23.2267 0.034914 23.2667C-0.045086 23.3167 0.024914 23.3867 0.118914 23.4617C0.488914 23.7067 0.866914 23.9237 1.25191 24.1337C2.40786 24.75 3.62779 25.2379 4.88991 25.5887C11.4269 27.3937 18.7899 26.0677 23.6999 21.1907C27.5529 17.3607 28.9039 12.0797 28.9039 6.79073C28.9039 6.58473 29.1479 6.47073 29.2939 6.36073C30.2969 5.60773 31.0939 4.70573 31.8419 3.69873C32.0099 3.47273 31.9999 3.27173 31.9999 3.18873V3.16073C31.9999 3.07673 32.0099 3.10173 31.8799 3.16073Z" fill="white"/>
</svg>
